<mxfile host="Electron" agent="Mozilla/5.0 (Macintosh; Intel Mac OS X 10_15_7) AppleWebKit/537.36 (KHTML, like Gecko) draw.io/26.0.3 Chrome/130.0.6723.137 Electron/33.2.1 Safari/537.36" version="26.0.3">
  <diagram name="Page-1" id="GzGw5cnEfx25N0Y3n3gf">
    <mxGraphModel dx="763" dy="582" grid="1" gridSize="10" guides="1" tooltips="1" connect="1" arrows="1" fold="1" page="1" pageScale="1" pageWidth="23039" pageHeight="33000" math="0" shadow="0">
      <root>
        <mxCell id="0" />
        <mxCell id="1" parent="0" />
        <mxCell id="L7ZpB9r83jfQkG_QydSq-3" value="" style="edgeStyle=orthogonalEdgeStyle;rounded=0;orthogonalLoop=1;jettySize=auto;html=1;" edge="1" parent="1" source="L7ZpB9r83jfQkG_QydSq-1" target="L7ZpB9r83jfQkG_QydSq-2">
          <mxGeometry relative="1" as="geometry" />
        </mxCell>
        <mxCell id="L7ZpB9r83jfQkG_QydSq-5" value="" style="edgeStyle=orthogonalEdgeStyle;rounded=0;orthogonalLoop=1;jettySize=auto;html=1;" edge="1" parent="1" source="L7ZpB9r83jfQkG_QydSq-1" target="L7ZpB9r83jfQkG_QydSq-4">
          <mxGeometry relative="1" as="geometry" />
        </mxCell>
        <mxCell id="L7ZpB9r83jfQkG_QydSq-1" value="架构师哲学" style="rounded=1;whiteSpace=wrap;html=1;fillColor=#f8cecc;strokeColor=#b85450;" vertex="1" parent="1">
          <mxGeometry x="7930" y="1050" width="120" height="60" as="geometry" />
        </mxCell>
        <mxCell id="L7ZpB9r83jfQkG_QydSq-2" value="架构师成长之路" style="whiteSpace=wrap;html=1;rounded=1;" vertex="1" parent="1">
          <mxGeometry x="7930" y="910" width="120" height="60" as="geometry" />
        </mxCell>
        <mxCell id="L7ZpB9r83jfQkG_QydSq-4" value="方法论" style="whiteSpace=wrap;html=1;rounded=1;" vertex="1" parent="1">
          <mxGeometry x="7930" y="1190" width="120" height="60" as="geometry" />
        </mxCell>
      </root>
    </mxGraphModel>
  </diagram>
</mxfile>
